# xmcd CD database file
#
# Track frame offsets:
#	150
#	12771
#	22780
#	37759
#	52710
#	67191
#	76981
#	86226
#	98926
#	114072
#	126574
#	138106
#	155484
#	169263
#	184126
#	196215
#	203670
#	218893
#	238080
#	248397
#	258440
#	265795
#
# Disc length: 3675 seconds
#
# Revision: 3
# Processed by: cddbd v1.5.2PL0 Copyright (c) Steve Scherf et al.
# Submitted via: CDex 1.70beta2
#
DISCID=1d0e5916
DTITLE=Country and Western - Alltime Country Hits - CD2
DYEAR=2001
DGENRE=Country
TTITLE0=Dolly Parton - Little Blossom
TTITLE1=Johnny Cash - Rock Island Line
TTITLE2=Unknown - Lovers Live Longer
TTITLE3=Kingston Trio - Tom Dooley
TTITLE4=Unknown - If I said You Had A Beautiful Body
TTITLE5=Merle Haggard - Take Me Back To Tulsa
TTITLE6=Conway Twitty - Ever Since You Went Away
TTITLE7=Kenny Rogers - Rueben James
TTITLE8=Willie Nelson - Face Of A Fighter
TTITLE9=Ronnie McDowell - Older Women Make Good Lovers
TTITLE10=Hoyt Axton - No No Song
TTITLE11=Ferlin Husky - Convoy
TTITLE12=Hoyt Axton - Lonesome Road
TTITLE13=Frankie Laine - Jezabel
TTITLE14=Johnny Cash - I Walk The Line
TTITLE15=Dolly Parton - Puppy Love
TTITLE16=Merle Haggard - Mule Skinner Blues
TTITLE17=Kenny Rogers - Coward Of  The County
TTITLE18=Dave Dudley - Six Days On The Road
TTITLE19=Bobby Bare - Help Me Make It Through The Night
TTITLE20=Sir Douglas Quintett - Cotton Eyed Joe
TTITLE21=George Jones - Back In Baby's Arms Again
EXTD=YEAR: 2001
EXTT0=
EXTT1=
EXTT2=
EXTT3=
EXTT4=
EXTT5=
EXTT6=
EXTT7=
EXTT8=
EXTT9=
EXTT10=
EXTT11=
EXTT12=
EXTT13=
EXTT14=
EXTT15=
EXTT16=
EXTT17=
EXTT18=
EXTT19=
EXTT20=
EXTT21=
PLAYORDER=
